# xmcd CD database file
#
# Track frame offsets:
#	150
#	10087
#	22283
#	37824
#	59767
#	76777
#	91795
#	127758
#	145370
#	157941
#	184067
#	198665
#	209631
#	220099
#	235634
#	259139
#	279778
#	294468
#	303712
#
# Disc length: 4353 seconds
#
# Revision: 0
# Processed by: cddbd v1.5PL3 Copyright (c) Steve Scherf et al.
# Submitted via: CDex 1.51
#
DISCID=0a10ff13
DTITLE=Blues In The Afterhour - Blues In The Afterhour
DYEAR=1900
DGENRE=Blues
TTITLE0=Lazy Lester/ I hear you knocking
TTITLE1=Lazy Lester/ Sugar Coated Love
TTITLE2=Loghtning Hopkins/ Born with the Blues
TTITLE3=Little/ Fat Man
TTITLE4=Unknown
TTITLE5=Unknown
TTITLE6=Unknown
TTITLE7=Junior Wells/ Good Morning Little Schoolgirl
TTITLE8=Howling Wolf/ Highway 49
TTITLE9=Muddy Waters/ Long Distance Cell
TTITLE10=Professor Longhair/ Big Chief
TTITLE11=Willie Dixon/ Little Red Rose
TTITLE12=Elmore James/ I Done Somebody Wrong
TTITLE13=Roy Buchanan/ Tribute to Elmore James
TTITLE14=Unknown
TTITLE15=Joanna Connor/ 43rd Street
TTITLE16=Joanna Connor/ At The Club
TTITLE17=Professor Longhair/ Rum and Coca Cola
TTITLE18=Professor Longhair/ Stagger Lee
EXTD=
EXTT0=
EXTT1=
EXTT2=
EXTT3=
EXTT4=
EXTT5=
EXTT6=
EXTT7=
EXTT8=
EXTT9=
EXTT10=
EXTT11=
EXTT12=
EXTT13=
EXTT14=
EXTT15=
EXTT16=
EXTT17=
EXTT18=
PLAYORDER=
